HIERARCHY
ROOT Hips
{
    OFFSET   0.000000   0.000000   0.000000
    CHANNELS 6 Xposition Yposition Zposition Zrotation Xrotation Yrotation
    JOINT Chest
    {
        OFFSET   0.000000   8.007230   0.000000
        CHANNELS 3 Zrotation Xrotation Yrotation
        JOINT Chest2
        {
            OFFSET   0.000000  22.077100   0.000000
            CHANNELS 3 Zrotation Xrotation Yrotation
            JOINT Neck
            {
                OFFSET   0.000000  23.254800  -0.000021
                CHANNELS 3 Zrotation Xrotation Yrotation
                JOINT Head
                {
                    OFFSET   0.000000  14.370000   1.956610
                    CHANNELS 3 Zrotation Xrotation Yrotation
                    End Site
                    {
                        OFFSET   0.000000  19.566000   0.000000
                    }
                }
            }
            JOINT LeftCollar
            {
                OFFSET   3.911900  19.017000  -0.467063
                CHANNELS 3 Zrotation Xrotation Yrotation
                JOINT LeftShoulder
                {
                    OFFSET  10.383700   0.000000   0.000000
                    CHANNELS 3 Zrotation Xrotation Yrotation
                    JOINT LeftElbow
                    {
                        OFFSET  26.662100   0.001529   0.000325
                        CHANNELS 3 Zrotation Xrotation Yrotation
                        JOINT LeftWrist
                        {
                            OFFSET  28.869000  -0.000011  -0.000096
                            CHANNELS 3 Zrotation Xrotation Yrotation
                            JOINT LeftFinger0
                            {
                                OFFSET   2.044650  -2.323460   3.252850
                                CHANNELS 3 Zrotation Xrotation Yrotation
                                JOINT LeftFinger01
                                {
                                    OFFSET   3.088130   0.000000   0.000000
                                    CHANNELS 3 Zrotation Xrotation Yrotation
                                    JOINT LeftFinger02
                                    {
                                        OFFSET   2.639460   0.000000   0.000000
                                        CHANNELS 3 Zrotation Xrotation Yrotation
                                        End Site
                                        {
                                            OFFSET   2.582190   0.000000   0.000000
                                        }
                                    }
                                }
                            }
                            JOINT LeftFinger1
                            {
                                OFFSET   8.364480   0.000000   3.252850
                                CHANNELS 3 Zrotation Xrotation Yrotation
                                JOINT LeftFinger11
                                {
                                    OFFSET   4.646930   0.000000   0.000000
                                    CHANNELS 3 Zrotation Xrotation Yrotation
                                    JOINT LeftFinger12
                                    {
                                        OFFSET   2.323460   0.000000   0.000000
                                        CHANNELS 3 Zrotation Xrotation Yrotation
                                        End Site
                                        {
                                            OFFSET   2.273050   0.000000   0.000000
                                        }
                                    }
                                }
                            }
                            JOINT LeftFinger2
                            {
                                OFFSET   8.364480   0.000016   1.078090
                                CHANNELS 3 Zrotation Xrotation Yrotation
                                JOINT LeftFinger21
                                {
                                    OFFSET   5.111620   0.000000   0.000000
                                    CHANNELS 3 Zrotation Xrotation Yrotation
                                    JOINT LeftFinger22
                                    {
                                        OFFSET   2.788160   0.000017   0.000000
                                        CHANNELS 3 Zrotation Xrotation Yrotation
                                        End Site
                                        {
                                            OFFSET   2.727660   0.000000   0.000000
                                        }
                                    }
                                }
                            }
                            JOINT LeftFinger3
                            {
                                OFFSET   7.899780   0.000015  -1.078090
                                CHANNELS 3 Zrotation Xrotation Yrotation
                                JOINT LeftFinger31
                                {
                                    OFFSET   4.646920   0.000000   0.000000
                                    CHANNELS 3 Zrotation Xrotation Yrotation
                                    JOINT LeftFinger32
                                    {
                                        OFFSET   2.323470   0.000000   0.000000
                                        CHANNELS 3 Zrotation Xrotation Yrotation
                                        End Site
                                        {
                                            OFFSET   2.273050   0.000000   0.000000
                                        }
                                    }
                                }
                            }
                            JOINT LeftFinger4
                            {
                                OFFSET   7.435090   0.000000  -3.252850
                                CHANNELS 3 Zrotation Xrotation Yrotation
                                JOINT LeftFinger41
                                {
                                    OFFSET   3.717550   0.000000   0.000000
                                    CHANNELS 3 Zrotation Xrotation Yrotation
                                    JOINT LeftFinger42
                                    {
                                        OFFSET   1.858760   0.000000   0.000000
                                        CHANNELS 3 Zrotation Xrotation Yrotation
                                        End Site
                                        {
                                            OFFSET   1.818440   0.000000   0.000000
                                        }
                                    }
                                }
                            }
                        }
                    }
                }
            }
            JOINT RightCollar
            {
                OFFSET  -3.911900  19.017000  -0.467062
                CHANNELS 3 Zrotation Xrotation Yrotation
                JOINT RightShoulder
                {
                    OFFSET -10.383700   0.000015   0.000000
                    CHANNELS 3 Zrotation Xrotation Yrotation
                    JOINT RightElbow
                    {
                        OFFSET -26.662100   0.001341   0.000385
                        CHANNELS 3 Zrotation Xrotation Yrotation
                        JOINT RightWrist
                        {
                            OFFSET -28.869000   0.000025  -0.000080
                            CHANNELS 3 Zrotation Xrotation Yrotation
                            JOINT RightFinger0
                            {
                                OFFSET  -2.044650  -2.323490   3.252850
                                CHANNELS 3 Zrotation Xrotation Yrotation
                                JOINT RightFinger01
                                {
                                    OFFSET  -3.088130   0.000000   0.000000
                                    CHANNELS 3 Zrotation Xrotation Yrotation
                                    JOINT RightFinger02
                                    {
                                        OFFSET  -2.639460   0.000000   0.000000
                                        CHANNELS 3 Zrotation Xrotation Yrotation
                                        End Site
                                        {
                                            OFFSET  -2.582190   0.000000   0.000000
                                        }
                                    }
                                }
                            }
                            JOINT RightFinger1
                            {
                                OFFSET  -8.364480   0.000000   3.252850
                                CHANNELS 3 Zrotation Xrotation Yrotation
                                JOINT RightFinger11
                                {
                                    OFFSET  -4.646930   0.000000   0.000000
                                    CHANNELS 3 Zrotation Xrotation Yrotation
                                    JOINT RightFinger12
                                    {
                                        OFFSET  -2.323470   0.000000   0.000000
                                        CHANNELS 3 Zrotation Xrotation Yrotation
                                        End Site
                                        {
                                            OFFSET  -2.273050   0.000000   0.000000
                                        }
                                    }
                                }
                            }
                            JOINT RightFinger2
                            {
                                OFFSET  -8.364480   0.000000   1.078090
                                CHANNELS 3 Zrotation Xrotation Yrotation
                                JOINT RightFinger21
                                {
                                    OFFSET  -5.111610   0.000000   0.000000
                                    CHANNELS 3 Zrotation Xrotation Yrotation
                                    JOINT RightFinger22
                                    {
                                        OFFSET  -2.788160   0.000000   0.000000
                                        CHANNELS 3 Zrotation Xrotation Yrotation
                                        End Site
                                        {
                                            OFFSET  -2.727660   0.000000   0.000000
                                        }
                                    }
                                }
                            }
                            JOINT RightFinger3
                            {
                                OFFSET  -7.899780   0.000000  -1.078090
                                CHANNELS 3 Zrotation Xrotation Yrotation
                                JOINT RightFinger31
                                {
                                    OFFSET  -4.646920   0.000000   0.000000
                                    CHANNELS 3 Zrotation Xrotation Yrotation
                                    JOINT RightFinger32
                                    {
                                        OFFSET  -2.323470   0.000000   0.000000
                                        CHANNELS 3 Zrotation Xrotation Yrotation
                                        End Site
                                        {
                                            OFFSET  -2.273050   0.000000   0.000000
                                        }
                                    }
                                }
                            }
                            JOINT RightFinger4
                            {
                                OFFSET  -7.435090   0.000000  -3.252850
                                CHANNELS 3 Zrotation Xrotation Yrotation
                                JOINT RightFinger41
                                {
                                    OFFSET  -3.717550   0.000000   0.000000
                                    CHANNELS 3 Zrotation Xrotation Yrotation
                                    JOINT RightFinger42
                                    {
                                        OFFSET  -1.858770   0.000000   0.000000
                                        CHANNELS 3 Zrotation Xrotation Yrotation
                                        End Site
                                        {
                                            OFFSET  -1.818440   0.000000   0.000000
                                        }
                                    }
                                }
                            }
                        }
                    }
                }
            }
        }
    }
    JOINT LeftHip
    {
        OFFSET   9.783010   0.000000   0.000000
        CHANNELS 3 Zrotation Xrotation Yrotation
        JOINT LeftKnee
        {
            OFFSET   0.000070 -41.789100   0.000028
            CHANNELS 3 Zrotation Xrotation Yrotation
            JOINT LeftAnkle
            {
                OFFSET   0.000087 -41.133200  -0.000100
                CHANNELS 3 Zrotation Xrotation Yrotation
                JOINT LeftToe
                {
                    OFFSET   0.000000  -6.358960  14.674500
                    CHANNELS 3 Zrotation Xrotation Yrotation
                    End Site
                    {
                        OFFSET   0.000000   0.000000   3.913200
                    }
                }
            }
        }
    }
    JOINT RightHip
    {
        OFFSET  -9.783020   0.000000   0.000000
        CHANNELS 3 Zrotation Xrotation Yrotation
        JOINT RightKnee
        {
            OFFSET   0.000044 -41.789100  -0.000870
            CHANNELS 3 Zrotation Xrotation Yrotation
            JOINT RightAnkle
            {
                OFFSET  -0.000090 -41.133200  -0.000245
                CHANNELS 3 Zrotation Xrotation Yrotation
                JOINT RightToe
                {
                    OFFSET   0.000000  -6.358960  14.674500
                    CHANNELS 3 Zrotation Xrotation Yrotation
                    End Site
                    {
                        OFFSET   0.000000   0.000000   3.913200
                    }
                }
            }
        }
    }
}
MOTION
Frames: 4
Frame Time:   0.016667
  2.092980  89.557600  -0.292494  -3.287990  -9.365890  -1.072330   0.983660   5.243570   0.293176   1.952590  10.491400   0.498625   1.331670  -0.319440   0.007847   2.185670  -0.646957   5.459220  -4.458370  -1.048700   0.123295 -74.392800  19.626200   3.942820  -2.960040  -8.736720 -21.374500  17.454700 -17.514200   7.935070  39.627700  24.519300 -61.443400 -22.753200   0.006098   0.010108  -6.376600   0.003181   0.011183 -26.135400   4.945890  -9.972830 -21.735200  -0.005445  -0.008931 -15.214700   0.005298  -0.007119 -27.761600  -0.695574   1.319060 -30.599200  -0.009672  -0.003383 -20.379100   0.006803   0.000000 -27.085000  -0.679107   1.327410 -27.366600  -0.001672  -0.003285 -18.226100  -0.000568  -0.002434 -25.300900  -0.635843   1.348300 -37.959000   0.001751   0.001936 -25.280700   0.002426  -0.003537   9.005250  -0.920294   4.629580  73.231400  15.545400  -5.162330  -0.265144  -6.836740  17.035700 -17.178200  -5.824790   0.703594 -39.503800  32.131900  62.700100  30.305600  -0.000218   0.000231  10.152800  -0.002298   0.002389  27.643300   3.858360   7.295830  22.819300   0.000375  -0.013055  15.973500  -0.014667   0.000089  28.208700   2.656180   4.940200  34.316700  -0.000821  -0.000072  22.854900  -0.000520  -0.000284  27.241700   0.509311   0.987037  28.066900  -0.002180   0.002999  18.692500  -0.001271   0.000494  36.380900  -0.090854  -0.127843  54.562300  -0.000717   0.004847  36.344700   0.002314  -0.003899   2.225690  12.200100   3.442480   1.139150   0.004014   6.539120  -0.986127  -4.005610   3.367460  -0.000000   0.000000  -0.000000   3.908830   9.863480  -4.819580  -0.876169   3.737320 -11.309000  -0.334479  -5.243030   0.167930  -0.000000   0.000000   0.000000
  2.102870  89.557400  -0.279084  -3.292580  -9.385480  -1.068890   0.983541   5.277010   0.271077   1.954390  10.557900   0.453603   1.332410  -0.336960   0.007969   2.189180  -0.682292   5.549960  -4.475690  -1.078070   0.237061 -74.508600  19.607500   4.103150  -2.971370  -9.017440 -22.346300  17.666400 -17.260100   7.870040  39.821900  23.692300 -60.890600 -21.851700   0.014018   0.010065  -5.925870   0.007153   0.011143 -26.165500   4.999300 -10.070800 -21.766300  -0.005460  -0.008961 -15.236400   0.005294  -0.007138 -27.745800  -0.616235   1.166320 -30.497600  -0.009653  -0.003452 -20.311400   0.006795   0.000043 -27.035600  -0.601515   1.173820 -27.156800  -0.001650  -0.003258 -18.086400  -0.000576  -0.002413 -25.192200  -0.563445   1.192310 -37.792900   0.001781   0.001909 -25.170100   0.002422  -0.003644   9.004610  -0.950088   4.724660  73.232900  15.560400  -5.161800  -0.244182  -6.848800  17.038900 -17.169200  -5.811570   0.706200 -39.501500  32.138500  62.739200  30.304900  -0.000211   0.000222  10.152400  -0.002303   0.002376  27.653800   3.858300   7.303490  22.827700   0.000377  -0.013060  15.979300  -0.014672   0.000085  28.208000   2.660940   4.948910  34.323300  -0.000836  -0.000080  22.859300  -0.000526  -0.000271  27.241700   0.511897   0.992090  28.069100  -0.002190   0.002995  18.694000  -0.001279   0.000504  36.377900  -0.090853  -0.126868  54.560900  -0.000723   0.004847  36.341800   0.002309  -0.003893   2.229740  12.211700   3.436860   1.140560   0.043820   6.549260  -0.989038  -4.037910   3.359820  -0.000000   0.000000   0.000000   3.900350   9.926190  -4.812000  -0.855845   3.682390 -11.354100  -0.331035  -5.229520   0.205289   0.000000   0.000000   0.000000
  2.116670  89.557200  -0.255538  -3.298970  -9.432000  -1.051340   0.980517   5.341610   0.240043   1.951250  10.686500   0.390343   1.337570  -0.376559   0.008766   2.197730  -0.762244   5.679030  -4.491090  -1.124410   0.437299 -74.670000  19.494200   4.419430  -2.921350  -9.215890 -24.391100  18.228400 -17.006000   7.805350  39.937100  22.709600 -60.330800 -20.138100   0.025345   0.010022  -5.069050   0.012557   0.011060 -26.242200   5.131770 -10.304600 -21.846400  -0.005498  -0.009031 -15.292500   0.005283  -0.007189 -27.732500  -0.445107   0.838839 -30.395900  -0.009608  -0.003549 -20.243700   0.006777   0.000130 -26.988700  -0.434451   0.844324 -26.947000  -0.001605  -0.003200 -17.946700  -0.000600  -0.002367 -25.086000  -0.407680   0.857544 -37.626900   0.001846   0.001856 -25.059500   0.002410  -0.003822   9.000530  -0.979776   4.885340  73.235700  15.584400  -5.156110  -0.207236  -6.870090  17.051400 -17.160100  -5.787620   0.711137 -39.502100  32.164300  62.802000  30.304100  -0.000204   0.000213  10.152100  -0.002307   0.002355  27.664000   3.858200   7.314450  22.836100   0.000382  -0.013072  15.985200  -0.014682   0.000070  28.206800   2.668510   4.962890  34.330000  -0.000869  -0.000095  22.863800  -0.000544  -0.000242  27.241600   0.515423   1.000580  28.071300  -0.002215   0.002982  18.695400  -0.001298   0.000527  36.367500  -0.090853  -0.123383  54.551400  -0.000738   0.004847  36.331300   0.002296  -0.003878   2.237550  12.254400   3.423330   1.141960   0.083624   6.559400  -0.992621  -4.070250   3.342840  -0.000000   0.000000   0.000000   3.885770  10.045900  -4.805260  -0.819350   3.589210 -11.429200  -0.326100  -5.207560   0.258105   0.000000   0.000000  -0.000000
  2.122420  89.558800  -0.233889  -3.301280  -9.497780  -1.016170   0.972273   5.412210   0.226404   1.935590  10.827400   0.362448   1.352310  -0.431072   0.010791   2.220610  -0.872534   5.741520  -4.464690  -1.154330   0.631925 -74.720900  19.045300   4.784100  -2.560450  -8.551430 -26.883000  19.164200 -17.104400   7.892900  39.830300  22.533100 -60.303500 -18.232400   0.031057   0.010106  -4.116210   0.014111   0.010933 -26.357000   5.294810 -10.583700 -21.966700  -0.005559  -0.009128 -15.376700   0.005266  -0.007271 -27.753600  -0.203304   0.379536 -30.502400  -0.009542  -0.003590 -20.314700   0.006752   0.000238 -26.999100  -0.199064   0.381811 -26.979300  -0.001544  -0.003124 -17.968200  -0.000643  -0.002304 -25.095100  -0.188687   0.387282 -37.634600   0.001936   0.001783 -25.064600   0.002389  -0.004005   8.990620  -0.977484   5.025420  73.244200  15.599100  -5.129720  -0.175650  -6.889270  17.079500 -17.160100  -5.764220   0.717862 -39.526100  32.210400  62.857200  30.305900  -0.000216   0.000218  10.153000  -0.002299   0.002342  27.658900   3.857940   7.320010  22.832000   0.000392  -0.013091  15.982300  -0.014696   0.000029  28.205900   2.674730   4.975230  34.316000  -0.000911  -0.000110  22.854400  -0.000570  -0.000201  27.241500   0.516467   1.009270  28.049700  -0.002257   0.002962  18.681100  -0.001327   0.000559  36.344100  -0.085972  -0.115574  54.517900  -0.000760   0.004846  36.307900   0.002276  -0.003854   2.245350  12.342200   3.402220   1.140650   0.062065   6.559150  -0.991443  -4.069030   3.321840   0.000000   0.000000   0.000000   3.870470  10.173400  -4.807270  -0.783163   3.510550 -11.487700  -0.323605  -5.191080   0.282584   0.000000   0.000000   0.000000
